<?xml version="1.0" encoding="UTF-8"?>
<!DOCTYPE svg PUBLIC "-//W3C//DTD SVG 1.1//EN" "http://www.w3.org/Graphics/SVG/1.1/DTD/svg11.dtd">
<svg xmlns="http://www.w3.org/2000/svg" xmlns:xlink="http://www.w3.org/1999/xlink" version="1.1" width="281px" height="442px" viewBox="-0.5 -0.5 281 442"><defs/><g><rect x="130" y="270" width="20" height="170" fill="#000000" stroke="none" pointer-events="all"/><path d="M 220 0 L 280 30 L 220 60 Z" fill="#000000" stroke="none" transform="rotate(-90,250,30)" pointer-events="all"/><path d="M 109.5 0 L 169.5 30 L 109.5 60 Z" fill="#000000" stroke="none" transform="rotate(-90,139.5,30)" pointer-events="all"/><path d="M 0 0 L 60 30 L 0 60 Z" fill="#000000" stroke="none" transform="rotate(-90,30,30)" pointer-events="all"/><rect x="20" y="140" width="240" height="20" fill="#000000" stroke="none" pointer-events="all"/><rect x="20" y="50" width="20" height="110" fill="#000000" stroke="none" pointer-events="all"/><rect x="130" y="50" width="20" height="120" fill="#000000" stroke="none" pointer-events="all"/><rect x="240" y="50" width="20" height="110" fill="#000000" stroke="none" pointer-events="all"/><rect x="130" y="130" width="20" height="80" fill="#000000" stroke="none" pointer-events="all"/><path d="M 100 240 C 100 217.91 117.91 200 140 200 C 150.61 200 160.78 204.21 168.28 211.72 C 175.79 219.22 180 229.39 180 240 C 180 250.61 175.79 260.78 168.28 268.28 C 160.78 275.79 150.61 280 140 280 C 129.39 280 119.22 275.79 111.72 268.28 C 104.21 260.78 100 250.61 100 240 Z M 140 216.44 C 126.99 216.44 116.44 226.99 116.44 240 C 116.44 253.01 126.99 263.56 140 263.56 C 153.01 263.56 163.56 253.01 163.56 240 C 163.56 226.99 153.01 216.44 140 216.44 Z" fill="#000000" stroke="none" pointer-events="all"/><rect x="100" y="320" width="80" height="20" fill="#000000" stroke="none" pointer-events="all"/></g></svg>