<?xml version="1.0" standalone="no"?>
<!DOCTYPE svg PUBLIC "-//W3C//DTD SVG 20010904//EN"
 "http://www.w3.org/TR/2001/REC-SVG-20010904/DTD/svg10.dtd">
<svg version="1.0" xmlns="http://www.w3.org/2000/svg"
 width="884.000000pt" height="884.000000pt" viewBox="0 0 884.000000 884.000000"
 preserveAspectRatio="xMidYMid meet">
<metadata>
Created by potrace 1.14, written by Peter Selinger 2001-2017
</metadata>
<g transform="translate(0.000000,884.000000) scale(0.100000,-0.100000)"
fill="#000000" stroke="none">
<path d="M6610 8814 c0 -11 -4 -24 -9 -29 -11 -12 -201 -391 -202 -402 0 -5
-5 -13 -9 -18 -5 -6 -52 -98 -105 -205 -52 -107 -100 -202 -105 -210 -18 -29
-60 -119 -60 -129 0 -5 -3 -11 -7 -13 -5 -1 -27 -42 -50 -90 l-43 -88 200 0
200 0 0 -800 0 -800 -900 0 -899 0 -1 800 0 800 195 0 c183 0 195 1 185 18 -5
9 -139 277 -297 595 -158 317 -290 577 -293 577 -3 0 -61 -111 -128 -247 -67
-137 -126 -255 -131 -263 -11 -17 -100 -199 -100 -203 0 -1 -20 -40 -45 -86
-25 -46 -48 -93 -52 -105 -4 -11 -10 -26 -15 -31 -13 -18 -99 -192 -99 -203 0
-5 -7 -15 -15 -22 -8 -7 -15 -16 -15 -21 0 -5 92 -9 205 -9 l206 0 -1 -57 c0
-32 0 -66 0 -75 0 -10 1 -47 1 -83 0 -36 0 -72 0 -80 0 -8 0 -188 0 -400 0
-212 0 -392 0 -400 0 -8 0 -44 0 -80 0 -36 0 -73 -1 -82 0 -10 0 -91 0 -180
l-1 -163 -899 0 -899 0 -1 158 c-1 86 -1 164 -1 172 0 8 0 116 0 240 -1 124
-1 232 0 240 0 8 0 116 0 240 -1 124 0 232 0 240 0 8 0 81 0 163 l0 147 200 0
201 0 -85 171 c-47 94 -88 175 -91 180 -3 6 -48 94 -98 197 -51 103 -101 203
-111 222 -11 19 -20 37 -20 40 -3 16 -190 380 -195 380 -4 0 -15 -18 -26 -41
-25 -53 -192 -390 -203 -409 -7 -12 -357 -708 -369 -732 -2 -5 87 -8 197 -8
l201 0 0 -567 c0 -313 0 -572 0 -578 0 -5 0 -111 0 -235 -1 -317 -1 -496 -1
-562 l1 -58 1099 0 1099 0 2 -182 c0 -101 1 -189 1 -195 0 -7 0 -42 0 -78 0
-36 0 -72 0 -80 0 -8 0 -45 0 -82 0 -38 -1 -77 -1 -88 0 -11 -2 -42 -3 -68
l-2 -48 -80 -33 c-159 -66 -240 -126 -348 -259 -41 -51 -122 -201 -132 -246
-31 -137 -34 -164 -30 -266 2 -60 6 -117 8 -125 2 -8 7 -28 11 -45 22 -86 80
-211 131 -280 70 -97 233 -224 333 -261 26 -9 62 -23 80 -30 l33 -13 0 -108
c0 -59 0 -116 0 -125 -1 -68 0 -151 0 -165 0 -10 0 -109 0 -220 l0 -203 -301
0 -300 0 0 -200 0 -200 300 0 301 0 -1 -62 c0 -35 1 -70 1 -78 0 -8 0 -20 -1
-25 -1 -6 -2 -421 -1 -922 l1 -913 200 0 200 0 0 1000 0 1000 300 0 300 0 0
200 0 200 -300 0 -300 0 2 412 3 412 40 14 c286 100 483 323 540 613 16 82 14
275 -4 322 -6 15 -9 27 -6 27 2 0 -3 16 -11 35 -8 19 -12 35 -9 35 3 0 -16 41
-42 90 -25 50 -50 90 -55 90 -4 0 -8 6 -8 13 0 15 -110 131 -165 174 -23 17
-63 43 -89 57 -27 14 -55 31 -62 37 -8 6 -14 9 -14 5 0 -4 -13 0 -29 9 -26 13
-55 22 -84 24 -4 1 -7 188 -7 416 l1 415 1100 0 1099 0 0 83 c0 45 0 495 0
1000 l0 917 201 0 c110 0 199 3 197 8 -9 19 -136 270 -148 292 -8 14 -15 27
-15 30 -1 6 -288 578 -307 612 -7 13 -13 25 -13 28 -2 11 -107 216 -116 225
-5 5 -9 1 -9 -11z m-2075 -4327 c22 -5 44 -14 50 -18 5 -5 15 -9 22 -9 24 0
121 -69 163 -117 125 -142 155 -336 77 -508 -26 -59 -37 -74 -97 -135 -62 -63
-113 -95 -192 -119 -77 -23 -121 -27 -198 -16 -327 44 -505 389 -354 688 28
54 131 163 174 184 64 30 104 46 133 54 43 10 172 8 222 -4z"/>
</g>
</svg>
